<mxfile host="Electron" agent="Mozilla/5.0 (Windows NT 10.0; Win64; x64) AppleWebKit/537.36 (KHTML, like Gecko) draw.io/28.0.6 Chrome/138.0.7204.100 Electron/37.2.3 Safari/537.36" version="28.0.6">
  <diagram name="Страница — 1" id="uIa9eHi2O5LalqCqnPtc">
    <mxGraphModel dx="983" dy="580" grid="1" gridSize="10" guides="1" tooltips="1" connect="1" arrows="1" fold="1" page="1" pageScale="1" pageWidth="827" pageHeight="1169" math="0" shadow="0">
      <root>
        <mxCell id="0" />
        <mxCell id="1" parent="0" />
        <mxCell id="sA6IOaBDfChmS0OTvGN2-1" value="&lt;font style=&quot;font-size: 21px;&quot;&gt;users&lt;/font&gt;&lt;div&gt;&lt;br&gt;&lt;/div&gt;&lt;div&gt;&lt;span style=&quot;background-color: transparent; color: light-dark(rgb(0, 0, 0), rgb(255, 255, 255));&quot;&gt;PK&lt;/span&gt;&lt;span style=&quot;background-color: transparent; color: light-dark(rgb(0, 0, 0), rgb(255, 255, 255));&quot;&gt;&amp;nbsp;&lt;/span&gt;user_id&lt;/div&gt;&lt;div&gt;first_name&lt;/div&gt;&lt;div&gt;last_name&lt;/div&gt;&lt;div&gt;email&lt;/div&gt;&lt;div&gt;phone&lt;/div&gt;&lt;div&gt;created_at&lt;/div&gt;" style="rounded=0;whiteSpace=wrap;html=1;" parent="1" vertex="1">
          <mxGeometry x="100" y="110" width="120" height="140" as="geometry" />
        </mxCell>
        <mxCell id="sA6IOaBDfChmS0OTvGN2-2" value="&lt;font style=&quot;font-size: 21px;&quot;&gt;properties&lt;/font&gt;&lt;div&gt;&lt;br&gt;&lt;/div&gt;&lt;div&gt;PK property_id&lt;/div&gt;&lt;div&gt;&lt;span style=&quot;background-color: transparent; color: light-dark(rgb(0, 0, 0), rgb(255, 255, 255));&quot;&gt;FK&lt;/span&gt;&lt;span style=&quot;background-color: transparent; color: light-dark(rgb(0, 0, 0), rgb(255, 255, 255));&quot;&gt;&amp;nbsp;&lt;/span&gt;owner_id&lt;/div&gt;&lt;div&gt;name&lt;/div&gt;&lt;div&gt;address&lt;/div&gt;&lt;div&gt;price_per_night&lt;/div&gt;&lt;div&gt;created_at&lt;/div&gt;" style="rounded=0;whiteSpace=wrap;html=1;" parent="1" vertex="1">
          <mxGeometry x="320" y="110" width="120" height="140" as="geometry" />
        </mxCell>
        <mxCell id="sA6IOaBDfChmS0OTvGN2-3" value="&lt;font style=&quot;font-size: 21px;&quot;&gt;bookings&lt;/font&gt;&lt;div&gt;&lt;br&gt;&lt;/div&gt;&lt;div&gt;&lt;span style=&quot;background-color: transparent; color: light-dark(rgb(0, 0, 0), rgb(255, 255, 255));&quot;&gt;PK&lt;/span&gt;&lt;span style=&quot;background-color: transparent; color: light-dark(rgb(0, 0, 0), rgb(255, 255, 255));&quot;&gt;&amp;nbsp;&lt;/span&gt;booking_id&lt;/div&gt;&lt;div&gt;&lt;span style=&quot;background-color: transparent; color: light-dark(rgb(0, 0, 0), rgb(255, 255, 255));&quot;&gt;FK&lt;/span&gt;&lt;span style=&quot;background-color: transparent; color: light-dark(rgb(0, 0, 0), rgb(255, 255, 255));&quot;&gt;&amp;nbsp;&lt;/span&gt;user_id&lt;/div&gt;&lt;div&gt;&lt;span style=&quot;background-color: transparent; color: light-dark(rgb(0, 0, 0), rgb(255, 255, 255));&quot;&gt;FK&lt;/span&gt;&lt;span style=&quot;background-color: transparent; color: light-dark(rgb(0, 0, 0), rgb(255, 255, 255));&quot;&gt;&amp;nbsp;&lt;/span&gt;property_id&lt;/div&gt;&lt;div&gt;start_date&lt;/div&gt;&lt;div&gt;end_date&lt;/div&gt;&lt;div&gt;status&lt;/div&gt;&lt;div&gt;created_at&lt;/div&gt;" style="rounded=0;whiteSpace=wrap;html=1;" parent="1" vertex="1">
          <mxGeometry x="540" y="110" width="120" height="150" as="geometry" />
        </mxCell>
        <mxCell id="sA6IOaBDfChmS0OTvGN2-4" value="&lt;font style=&quot;font-size: 21px;&quot;&gt;payments&lt;/font&gt;&lt;div&gt;&lt;br&gt;&lt;/div&gt;&lt;div&gt;&lt;span style=&quot;background-color: transparent; color: light-dark(rgb(0, 0, 0), rgb(255, 255, 255));&quot;&gt;PK&lt;/span&gt;&lt;span style=&quot;background-color: transparent; color: light-dark(rgb(0, 0, 0), rgb(255, 255, 255));&quot;&gt;&amp;nbsp;&lt;/span&gt;payment_id&lt;/div&gt;&lt;div&gt;&lt;span style=&quot;background-color: transparent; color: light-dark(rgb(0, 0, 0), rgb(255, 255, 255));&quot;&gt;FK&lt;/span&gt;&lt;span style=&quot;background-color: transparent; color: light-dark(rgb(0, 0, 0), rgb(255, 255, 255));&quot;&gt;&amp;nbsp;&lt;/span&gt;booking_id&lt;/div&gt;&lt;div&gt;amount&lt;/div&gt;&lt;div&gt;payment_date&lt;/div&gt;&lt;div&gt;payment_method&lt;/div&gt;" style="rounded=0;whiteSpace=wrap;html=1;" parent="1" vertex="1">
          <mxGeometry x="540" y="350.05" width="120" height="130" as="geometry" />
        </mxCell>
        <mxCell id="sA6IOaBDfChmS0OTvGN2-5" value="&lt;font style=&quot;font-size: 21px;&quot;&gt;reviews&lt;/font&gt;&lt;div&gt;&lt;br&gt;&lt;/div&gt;&lt;div&gt;&lt;span style=&quot;background-color: transparent; color: light-dark(rgb(0, 0, 0), rgb(255, 255, 255));&quot;&gt;PK&lt;/span&gt;&lt;span style=&quot;background-color: transparent; color: light-dark(rgb(0, 0, 0), rgb(255, 255, 255));&quot;&gt;&amp;nbsp;&lt;/span&gt;review_id&lt;/div&gt;&lt;div&gt;&lt;span style=&quot;background-color: transparent; color: light-dark(rgb(0, 0, 0), rgb(255, 255, 255));&quot;&gt;FK&lt;/span&gt;&lt;span style=&quot;background-color: transparent; color: light-dark(rgb(0, 0, 0), rgb(255, 255, 255));&quot;&gt;&amp;nbsp;&lt;/span&gt;user_id&lt;/div&gt;&lt;div&gt;&lt;span style=&quot;background-color: transparent; color: light-dark(rgb(0, 0, 0), rgb(255, 255, 255));&quot;&gt;FK&lt;/span&gt;&lt;span style=&quot;background-color: transparent; color: light-dark(rgb(0, 0, 0), rgb(255, 255, 255));&quot;&gt;&amp;nbsp;&lt;/span&gt;property_id&lt;/div&gt;&lt;div&gt;rating&lt;/div&gt;&lt;div&gt;comment&lt;/div&gt;&lt;div&gt;created_at&lt;/div&gt;" style="rounded=0;whiteSpace=wrap;html=1;" parent="1" vertex="1">
          <mxGeometry x="100" y="445" width="120" height="140" as="geometry" />
        </mxCell>
        <mxCell id="sA6IOaBDfChmS0OTvGN2-32" value="&lt;font style=&quot;font-size: 21px;&quot;&gt;user_favorites&lt;/font&gt;&lt;div&gt;&lt;br&gt;&lt;/div&gt;&lt;div&gt;FK user_id&lt;/div&gt;&lt;div&gt;FK property_id&lt;/div&gt;&lt;div&gt;created_at&lt;br&gt;&lt;/div&gt;" style="rounded=0;whiteSpace=wrap;html=1;" parent="1" vertex="1">
          <mxGeometry x="310" y="465" width="140" height="100" as="geometry" />
        </mxCell>
        <mxCell id="sA6IOaBDfChmS0OTvGN2-51" value="" style="endArrow=none;html=1;rounded=0;entryX=0;entryY=0.5;entryDx=0;entryDy=0;" parent="1" target="qHGGSbSUSN5bT9a8Fdgy-68" edge="1">
          <mxGeometry width="50" height="50" relative="1" as="geometry">
            <mxPoint x="280" y="320" as="sourcePoint" />
            <mxPoint x="330" y="360" as="targetPoint" />
            <Array as="points">
              <mxPoint x="340" y="320" />
            </Array>
          </mxGeometry>
        </mxCell>
        <mxCell id="qHGGSbSUSN5bT9a8Fdgy-1" value="" style="endArrow=none;html=1;rounded=0;entryX=1;entryY=0.75;entryDx=0;entryDy=0;exitX=0.997;exitY=0.444;exitDx=0;exitDy=0;exitPerimeter=0;" edge="1" parent="1">
          <mxGeometry width="50" height="50" relative="1" as="geometry">
            <mxPoint x="219.64" y="174.82999999999996" as="sourcePoint" />
            <mxPoint x="320" y="175.17" as="targetPoint" />
          </mxGeometry>
        </mxCell>
        <mxCell id="qHGGSbSUSN5bT9a8Fdgy-11" value="" style="group" vertex="1" connectable="0" parent="1">
          <mxGeometry x="300" y="160" width="20.230000000000018" height="30" as="geometry" />
        </mxCell>
        <mxCell id="qHGGSbSUSN5bT9a8Fdgy-12" value="" style="triangle;whiteSpace=wrap;html=1;fillColor=none;rotation=-180;" vertex="1" parent="qHGGSbSUSN5bT9a8Fdgy-11">
          <mxGeometry x="0.2300000000000182" width="20" height="30" as="geometry" />
        </mxCell>
        <mxCell id="qHGGSbSUSN5bT9a8Fdgy-13" value="" style="endArrow=none;html=1;rounded=0;" edge="1" parent="qHGGSbSUSN5bT9a8Fdgy-11">
          <mxGeometry width="50" height="50" relative="1" as="geometry">
            <mxPoint y="27.5" as="sourcePoint" />
            <mxPoint x="0.2300000000000182" y="2.5" as="targetPoint" />
          </mxGeometry>
        </mxCell>
        <mxCell id="qHGGSbSUSN5bT9a8Fdgy-19" value="" style="group" vertex="1" connectable="0" parent="1">
          <mxGeometry x="230" y="160" width="10.23" height="30" as="geometry" />
        </mxCell>
        <mxCell id="qHGGSbSUSN5bT9a8Fdgy-20" value="" style="endArrow=none;html=1;rounded=0;" edge="1" parent="qHGGSbSUSN5bT9a8Fdgy-19">
          <mxGeometry width="50" height="50" relative="1" as="geometry">
            <mxPoint y="30" as="sourcePoint" />
            <mxPoint x="0.23000000000001777" as="targetPoint" />
          </mxGeometry>
        </mxCell>
        <mxCell id="qHGGSbSUSN5bT9a8Fdgy-21" value="" style="endArrow=none;html=1;rounded=0;" edge="1" parent="qHGGSbSUSN5bT9a8Fdgy-19">
          <mxGeometry width="50" height="50" relative="1" as="geometry">
            <mxPoint x="9.999999999999982" y="30" as="sourcePoint" />
            <mxPoint x="10.23" as="targetPoint" />
          </mxGeometry>
        </mxCell>
        <mxCell id="qHGGSbSUSN5bT9a8Fdgy-22" value="" style="endArrow=none;html=1;rounded=0;exitX=0.997;exitY=0.444;exitDx=0;exitDy=0;exitPerimeter=0;entryX=0;entryY=0.5;entryDx=0;entryDy=0;" edge="1" parent="1" target="qHGGSbSUSN5bT9a8Fdgy-28">
          <mxGeometry width="50" height="50" relative="1" as="geometry">
            <mxPoint x="220" y="134.82999999999996" as="sourcePoint" />
            <mxPoint x="260" y="135" as="targetPoint" />
            <Array as="points">
              <mxPoint x="260" y="134" />
              <mxPoint x="260" y="80" />
              <mxPoint x="480" y="80" />
              <mxPoint x="480" y="135" />
            </Array>
          </mxGeometry>
        </mxCell>
        <mxCell id="qHGGSbSUSN5bT9a8Fdgy-23" value="" style="group" vertex="1" connectable="0" parent="1">
          <mxGeometry x="230.36" y="120" width="10.23" height="30" as="geometry" />
        </mxCell>
        <mxCell id="qHGGSbSUSN5bT9a8Fdgy-24" value="" style="endArrow=none;html=1;rounded=0;" edge="1" parent="qHGGSbSUSN5bT9a8Fdgy-23">
          <mxGeometry width="50" height="50" relative="1" as="geometry">
            <mxPoint y="30" as="sourcePoint" />
            <mxPoint x="0.23000000000001777" as="targetPoint" />
          </mxGeometry>
        </mxCell>
        <mxCell id="qHGGSbSUSN5bT9a8Fdgy-25" value="" style="endArrow=none;html=1;rounded=0;" edge="1" parent="qHGGSbSUSN5bT9a8Fdgy-23">
          <mxGeometry width="50" height="50" relative="1" as="geometry">
            <mxPoint x="9.999999999999982" y="30" as="sourcePoint" />
            <mxPoint x="10.23" as="targetPoint" />
          </mxGeometry>
        </mxCell>
        <mxCell id="qHGGSbSUSN5bT9a8Fdgy-27" value="" style="group" vertex="1" connectable="0" parent="1">
          <mxGeometry x="520" y="120" width="20.230000000000018" height="30" as="geometry" />
        </mxCell>
        <mxCell id="qHGGSbSUSN5bT9a8Fdgy-28" value="" style="triangle;whiteSpace=wrap;html=1;fillColor=none;rotation=-180;" vertex="1" parent="qHGGSbSUSN5bT9a8Fdgy-27">
          <mxGeometry x="0.2300000000000182" width="20" height="30" as="geometry" />
        </mxCell>
        <mxCell id="qHGGSbSUSN5bT9a8Fdgy-29" value="" style="endArrow=none;html=1;rounded=0;" edge="1" parent="qHGGSbSUSN5bT9a8Fdgy-27">
          <mxGeometry width="50" height="50" relative="1" as="geometry">
            <mxPoint y="27.5" as="sourcePoint" />
            <mxPoint x="0.2300000000000182" y="2.5" as="targetPoint" />
          </mxGeometry>
        </mxCell>
        <mxCell id="qHGGSbSUSN5bT9a8Fdgy-30" value="" style="endArrow=none;html=1;rounded=0;entryX=1;entryY=0.75;entryDx=0;entryDy=0;" edge="1" parent="1">
          <mxGeometry width="50" height="50" relative="1" as="geometry">
            <mxPoint x="440" y="180" as="sourcePoint" />
            <mxPoint x="539.77" y="180.17" as="targetPoint" />
          </mxGeometry>
        </mxCell>
        <mxCell id="qHGGSbSUSN5bT9a8Fdgy-32" value="" style="group" vertex="1" connectable="0" parent="1">
          <mxGeometry x="449.77" y="165" width="10.23" height="30" as="geometry" />
        </mxCell>
        <mxCell id="qHGGSbSUSN5bT9a8Fdgy-33" value="" style="endArrow=none;html=1;rounded=0;" edge="1" parent="qHGGSbSUSN5bT9a8Fdgy-32">
          <mxGeometry width="50" height="50" relative="1" as="geometry">
            <mxPoint y="30" as="sourcePoint" />
            <mxPoint x="0.23000000000001777" as="targetPoint" />
          </mxGeometry>
        </mxCell>
        <mxCell id="qHGGSbSUSN5bT9a8Fdgy-34" value="" style="endArrow=none;html=1;rounded=0;" edge="1" parent="qHGGSbSUSN5bT9a8Fdgy-32">
          <mxGeometry width="50" height="50" relative="1" as="geometry">
            <mxPoint x="9.999999999999982" y="30" as="sourcePoint" />
            <mxPoint x="10.23" as="targetPoint" />
          </mxGeometry>
        </mxCell>
        <mxCell id="qHGGSbSUSN5bT9a8Fdgy-35" value="" style="group" vertex="1" connectable="0" parent="1">
          <mxGeometry x="520" y="165" width="20.230000000000018" height="30" as="geometry" />
        </mxCell>
        <mxCell id="qHGGSbSUSN5bT9a8Fdgy-36" value="" style="triangle;whiteSpace=wrap;html=1;fillColor=none;rotation=-180;" vertex="1" parent="qHGGSbSUSN5bT9a8Fdgy-35">
          <mxGeometry x="0.2300000000000182" width="20" height="30" as="geometry" />
        </mxCell>
        <mxCell id="qHGGSbSUSN5bT9a8Fdgy-37" value="" style="endArrow=none;html=1;rounded=0;" edge="1" parent="qHGGSbSUSN5bT9a8Fdgy-35">
          <mxGeometry width="50" height="50" relative="1" as="geometry">
            <mxPoint y="27.5" as="sourcePoint" />
            <mxPoint x="0.2300000000000182" y="2.5" as="targetPoint" />
          </mxGeometry>
        </mxCell>
        <mxCell id="qHGGSbSUSN5bT9a8Fdgy-40" value="" style="group;rotation=-180;" vertex="1" connectable="0" parent="1">
          <mxGeometry x="220.36" y="510" width="20.230000000000018" height="30" as="geometry" />
        </mxCell>
        <mxCell id="qHGGSbSUSN5bT9a8Fdgy-41" value="" style="triangle;whiteSpace=wrap;html=1;fillColor=none;rotation=-360;" vertex="1" parent="qHGGSbSUSN5bT9a8Fdgy-40">
          <mxGeometry width="20" height="30" as="geometry" />
        </mxCell>
        <mxCell id="qHGGSbSUSN5bT9a8Fdgy-42" value="" style="endArrow=none;html=1;rounded=0;" edge="1" parent="qHGGSbSUSN5bT9a8Fdgy-40">
          <mxGeometry width="50" height="50" relative="1" as="geometry">
            <mxPoint x="20" y="3" as="sourcePoint" />
            <mxPoint x="20" y="28" as="targetPoint" />
          </mxGeometry>
        </mxCell>
        <mxCell id="qHGGSbSUSN5bT9a8Fdgy-43" value="" style="endArrow=none;html=1;rounded=0;entryX=0.003;entryY=0.82;entryDx=0;entryDy=0;exitX=0;exitY=0.5;exitDx=0;exitDy=0;entryPerimeter=0;" edge="1" parent="1" source="qHGGSbSUSN5bT9a8Fdgy-41" target="sA6IOaBDfChmS0OTvGN2-2">
          <mxGeometry width="50" height="50" relative="1" as="geometry">
            <mxPoint x="219.99999999999997" y="400" as="sourcePoint" />
            <mxPoint x="320.59000000000003" y="230.17" as="targetPoint" />
            <Array as="points">
              <mxPoint x="270" y="525" />
              <mxPoint x="270" y="225" />
            </Array>
          </mxGeometry>
        </mxCell>
        <mxCell id="qHGGSbSUSN5bT9a8Fdgy-44" value="" style="group" vertex="1" connectable="0" parent="1">
          <mxGeometry x="299.77" y="210" width="10.23" height="30" as="geometry" />
        </mxCell>
        <mxCell id="qHGGSbSUSN5bT9a8Fdgy-45" value="" style="endArrow=none;html=1;rounded=0;" edge="1" parent="qHGGSbSUSN5bT9a8Fdgy-44">
          <mxGeometry width="50" height="50" relative="1" as="geometry">
            <mxPoint y="30" as="sourcePoint" />
            <mxPoint x="0.23000000000001777" as="targetPoint" />
          </mxGeometry>
        </mxCell>
        <mxCell id="qHGGSbSUSN5bT9a8Fdgy-46" value="" style="endArrow=none;html=1;rounded=0;" edge="1" parent="qHGGSbSUSN5bT9a8Fdgy-44">
          <mxGeometry width="50" height="50" relative="1" as="geometry">
            <mxPoint x="9.999999999999982" y="30" as="sourcePoint" />
            <mxPoint x="10.23" as="targetPoint" />
          </mxGeometry>
        </mxCell>
        <mxCell id="qHGGSbSUSN5bT9a8Fdgy-47" value="" style="group;rotation=-180;" vertex="1" connectable="0" parent="1">
          <mxGeometry x="220" y="460" width="20.230000000000018" height="30" as="geometry" />
        </mxCell>
        <mxCell id="qHGGSbSUSN5bT9a8Fdgy-48" value="" style="triangle;whiteSpace=wrap;html=1;fillColor=none;rotation=-360;" vertex="1" parent="qHGGSbSUSN5bT9a8Fdgy-47">
          <mxGeometry width="20" height="30" as="geometry" />
        </mxCell>
        <mxCell id="qHGGSbSUSN5bT9a8Fdgy-49" value="" style="endArrow=none;html=1;rounded=0;" edge="1" parent="qHGGSbSUSN5bT9a8Fdgy-47">
          <mxGeometry width="50" height="50" relative="1" as="geometry">
            <mxPoint x="20" y="3" as="sourcePoint" />
            <mxPoint x="20" y="28" as="targetPoint" />
          </mxGeometry>
        </mxCell>
        <mxCell id="qHGGSbSUSN5bT9a8Fdgy-51" value="" style="group" vertex="1" connectable="0" parent="1">
          <mxGeometry x="230" y="210" width="10.23" height="30" as="geometry" />
        </mxCell>
        <mxCell id="qHGGSbSUSN5bT9a8Fdgy-52" value="" style="endArrow=none;html=1;rounded=0;" edge="1" parent="qHGGSbSUSN5bT9a8Fdgy-51">
          <mxGeometry width="50" height="50" relative="1" as="geometry">
            <mxPoint y="30" as="sourcePoint" />
            <mxPoint x="0.23000000000001777" as="targetPoint" />
          </mxGeometry>
        </mxCell>
        <mxCell id="qHGGSbSUSN5bT9a8Fdgy-53" value="" style="endArrow=none;html=1;rounded=0;" edge="1" parent="qHGGSbSUSN5bT9a8Fdgy-51">
          <mxGeometry width="50" height="50" relative="1" as="geometry">
            <mxPoint x="9.999999999999982" y="30" as="sourcePoint" />
            <mxPoint x="10.23" as="targetPoint" />
          </mxGeometry>
        </mxCell>
        <mxCell id="qHGGSbSUSN5bT9a8Fdgy-54" value="" style="endArrow=none;html=1;rounded=0;exitX=0;exitY=0.5;exitDx=0;exitDy=0;entryX=0.998;entryY=0.821;entryDx=0;entryDy=0;entryPerimeter=0;" edge="1" parent="1" source="qHGGSbSUSN5bT9a8Fdgy-48" target="sA6IOaBDfChmS0OTvGN2-1">
          <mxGeometry width="50" height="50" relative="1" as="geometry">
            <mxPoint x="220.36" y="370.05" as="sourcePoint" />
            <mxPoint x="230.36" y="225.05" as="targetPoint" />
            <Array as="points">
              <mxPoint x="260" y="475" />
              <mxPoint x="260.36" y="225.05" />
            </Array>
          </mxGeometry>
        </mxCell>
        <mxCell id="qHGGSbSUSN5bT9a8Fdgy-55" value="" style="endArrow=none;html=1;rounded=0;entryX=1.002;entryY=0.383;entryDx=0;entryDy=0;entryPerimeter=0;exitX=0.997;exitY=0.431;exitDx=0;exitDy=0;exitPerimeter=0;" edge="1" parent="1" source="sA6IOaBDfChmS0OTvGN2-3">
          <mxGeometry width="50" height="50" relative="1" as="geometry">
            <mxPoint x="670" y="175" as="sourcePoint" />
            <mxPoint x="660.2399999999999" y="404.84000000000003" as="targetPoint" />
            <Array as="points">
              <mxPoint x="710" y="175" />
              <mxPoint x="710" y="405" />
            </Array>
          </mxGeometry>
        </mxCell>
        <mxCell id="qHGGSbSUSN5bT9a8Fdgy-56" value="" style="group" vertex="1" connectable="0" parent="1">
          <mxGeometry x="669.77" y="160" width="10.23" height="30" as="geometry" />
        </mxCell>
        <mxCell id="qHGGSbSUSN5bT9a8Fdgy-57" value="" style="endArrow=none;html=1;rounded=0;" edge="1" parent="qHGGSbSUSN5bT9a8Fdgy-56">
          <mxGeometry width="50" height="50" relative="1" as="geometry">
            <mxPoint y="30" as="sourcePoint" />
            <mxPoint x="0.23000000000001777" as="targetPoint" />
          </mxGeometry>
        </mxCell>
        <mxCell id="qHGGSbSUSN5bT9a8Fdgy-58" value="" style="endArrow=none;html=1;rounded=0;" edge="1" parent="qHGGSbSUSN5bT9a8Fdgy-56">
          <mxGeometry width="50" height="50" relative="1" as="geometry">
            <mxPoint x="9.999999999999982" y="30" as="sourcePoint" />
            <mxPoint x="10.23" as="targetPoint" />
          </mxGeometry>
        </mxCell>
        <mxCell id="qHGGSbSUSN5bT9a8Fdgy-59" value="" style="group" vertex="1" connectable="0" parent="1">
          <mxGeometry x="670" y="390" width="10.23" height="30" as="geometry" />
        </mxCell>
        <mxCell id="qHGGSbSUSN5bT9a8Fdgy-60" value="" style="endArrow=none;html=1;rounded=0;" edge="1" parent="qHGGSbSUSN5bT9a8Fdgy-59">
          <mxGeometry width="50" height="50" relative="1" as="geometry">
            <mxPoint y="30" as="sourcePoint" />
            <mxPoint x="0.23000000000001777" as="targetPoint" />
          </mxGeometry>
        </mxCell>
        <mxCell id="qHGGSbSUSN5bT9a8Fdgy-61" value="" style="endArrow=none;html=1;rounded=0;" edge="1" parent="qHGGSbSUSN5bT9a8Fdgy-59">
          <mxGeometry width="50" height="50" relative="1" as="geometry">
            <mxPoint x="9.999999999999982" y="30" as="sourcePoint" />
            <mxPoint x="10.23" as="targetPoint" />
          </mxGeometry>
        </mxCell>
        <mxCell id="qHGGSbSUSN5bT9a8Fdgy-67" value="" style="group;rotation=90;" vertex="1" connectable="0" parent="1">
          <mxGeometry x="329.995" y="439.995" width="20.230000000000018" height="30" as="geometry" />
        </mxCell>
        <mxCell id="qHGGSbSUSN5bT9a8Fdgy-68" value="" style="triangle;whiteSpace=wrap;html=1;fillColor=none;rotation=-90;" vertex="1" parent="qHGGSbSUSN5bT9a8Fdgy-67">
          <mxGeometry width="20" height="30" as="geometry" />
        </mxCell>
        <mxCell id="qHGGSbSUSN5bT9a8Fdgy-69" value="" style="endArrow=none;html=1;rounded=0;" edge="1" parent="qHGGSbSUSN5bT9a8Fdgy-67">
          <mxGeometry width="50" height="50" relative="1" as="geometry">
            <mxPoint x="-2" y="5" as="sourcePoint" />
            <mxPoint x="23" y="5" as="targetPoint" />
          </mxGeometry>
        </mxCell>
        <mxCell id="qHGGSbSUSN5bT9a8Fdgy-71" value="" style="group;rotation=90;" vertex="1" connectable="0" parent="1">
          <mxGeometry x="400" y="250" width="10.23" height="30" as="geometry" />
        </mxCell>
        <mxCell id="qHGGSbSUSN5bT9a8Fdgy-72" value="" style="endArrow=none;html=1;rounded=0;" edge="1" parent="qHGGSbSUSN5bT9a8Fdgy-71">
          <mxGeometry width="50" height="50" relative="1" as="geometry">
            <mxPoint x="-10" y="10" as="sourcePoint" />
            <mxPoint x="20" y="10" as="targetPoint" />
          </mxGeometry>
        </mxCell>
        <mxCell id="qHGGSbSUSN5bT9a8Fdgy-73" value="" style="endArrow=none;html=1;rounded=0;" edge="1" parent="qHGGSbSUSN5bT9a8Fdgy-71">
          <mxGeometry width="50" height="50" relative="1" as="geometry">
            <mxPoint x="-10" y="20" as="sourcePoint" />
            <mxPoint x="20" y="20" as="targetPoint" />
          </mxGeometry>
        </mxCell>
        <mxCell id="qHGGSbSUSN5bT9a8Fdgy-74" value="" style="endArrow=none;html=1;rounded=0;entryX=0;entryY=0.5;entryDx=0;entryDy=0;exitX=0.705;exitY=1.007;exitDx=0;exitDy=0;exitPerimeter=0;" edge="1" parent="1" source="sA6IOaBDfChmS0OTvGN2-2">
          <mxGeometry width="50" height="50" relative="1" as="geometry">
            <mxPoint x="405.08000000000004" y="350.00000000000006" as="sourcePoint" />
            <mxPoint x="405" y="464.86" as="targetPoint" />
            <Array as="points">
              <mxPoint x="405" y="389.86" />
            </Array>
          </mxGeometry>
        </mxCell>
        <mxCell id="qHGGSbSUSN5bT9a8Fdgy-75" value="" style="group;rotation=90;" vertex="1" connectable="0" parent="1">
          <mxGeometry x="395" y="439.86" width="20.230000000000018" height="30" as="geometry" />
        </mxCell>
        <mxCell id="qHGGSbSUSN5bT9a8Fdgy-76" value="" style="triangle;whiteSpace=wrap;html=1;fillColor=none;rotation=-90;" vertex="1" parent="qHGGSbSUSN5bT9a8Fdgy-75">
          <mxGeometry width="20" height="30" as="geometry" />
        </mxCell>
        <mxCell id="qHGGSbSUSN5bT9a8Fdgy-77" value="" style="endArrow=none;html=1;rounded=0;" edge="1" parent="qHGGSbSUSN5bT9a8Fdgy-75">
          <mxGeometry width="50" height="50" relative="1" as="geometry">
            <mxPoint x="-2" y="5" as="sourcePoint" />
            <mxPoint x="23" y="5" as="targetPoint" />
          </mxGeometry>
        </mxCell>
        <mxCell id="qHGGSbSUSN5bT9a8Fdgy-79" value="" style="group;rotation=90;" vertex="1" connectable="0" parent="1">
          <mxGeometry x="190.005" y="249.99999999999994" width="10.23" height="30" as="geometry" />
        </mxCell>
        <mxCell id="qHGGSbSUSN5bT9a8Fdgy-80" value="" style="endArrow=none;html=1;rounded=0;" edge="1" parent="qHGGSbSUSN5bT9a8Fdgy-79">
          <mxGeometry width="50" height="50" relative="1" as="geometry">
            <mxPoint x="-10" y="10" as="sourcePoint" />
            <mxPoint x="20" y="10" as="targetPoint" />
          </mxGeometry>
        </mxCell>
        <mxCell id="qHGGSbSUSN5bT9a8Fdgy-81" value="" style="endArrow=none;html=1;rounded=0;" edge="1" parent="qHGGSbSUSN5bT9a8Fdgy-79">
          <mxGeometry width="50" height="50" relative="1" as="geometry">
            <mxPoint x="-10" y="20" as="sourcePoint" />
            <mxPoint x="20" y="20" as="targetPoint" />
          </mxGeometry>
        </mxCell>
        <mxCell id="qHGGSbSUSN5bT9a8Fdgy-82" value="" style="endArrow=none;html=1;rounded=0;exitX=0.584;exitY=1.001;exitDx=0;exitDy=0;exitPerimeter=0;" edge="1" parent="1">
          <mxGeometry width="50" height="50" relative="1" as="geometry">
            <mxPoint x="195.08500000000004" y="250" as="sourcePoint" />
            <mxPoint x="250" y="320" as="targetPoint" />
            <Array as="points">
              <mxPoint x="195" y="320" />
            </Array>
          </mxGeometry>
        </mxCell>
        <mxCell id="qHGGSbSUSN5bT9a8Fdgy-84" value="&lt;font style=&quot;&quot; face=&quot;Helvetica&quot;&gt;&lt;code style=&quot;font-size: 8px; box-sizing: border-box; border-width: 0px; border-style: solid; border-color: oklch(0.9296 0.007 106.53 / 0.1); scrollbar-color: initial; scrollbar-width: initial; --tw-border-spacing-x: 0; --tw-border-spacing-y: 0; --tw-translate-x: 0; --tw-translate-y: 0; --tw-rotate: 0; --tw-skew-x: 0; --tw-skew-y: 0; --tw-scale-x: 1; --tw-scale-y: 1; --tw-pan-x: ; --tw-pan-y: ; --tw-pinch-zoom: ; --tw-scroll-snap-strictness: proximity; --tw-gradient-from-position: ; --tw-gradient-via-position: ; --tw-gradient-to-position: ; --tw-ordinal: ; --tw-slashed-zero: ; --tw-numeric-figure: ; --tw-numeric-spacing: ; --tw-numeric-fraction: ; --tw-ring-inset: ; --tw-ring-offset-width: 0px; --tw-ring-offset-color: #fff; --tw-ring-color: rgb(59 130 246 / .5); --tw-ring-offset-shadow: 0 0 #0000; --tw-ring-shadow: 0 0 #0000; --tw-shadow: 0 0 #0000; --tw-shadow-colored: 0 0 #0000; --tw-blur: ; --tw-brightness: ; --tw-contrast: ; --tw-grayscale: ; --tw-hue-rotate: ; --tw-invert: ; --tw-saturate: ; --tw-sepia: ; --tw-drop-shadow: ; --tw-backdrop-blur: ; --tw-backdrop-brightness: ; --tw-backdrop-contrast: ; --tw-backdrop-grayscale: ; --tw-backdrop-hue-rotate: ; --tw-backdrop-invert: ; --tw-backdrop-opacity: ; --tw-backdrop-saturate: ; --tw-backdrop-sepia: ; --tw-contain-size: ; --tw-contain-layout: ; --tw-contain-paint: ; --tw-contain-style: ; font-feature-settings: normal; font-variation-settings: normal; color: oklch(0.9296 0.007 106.53); border-radius: 0.3125rem; padding: 0px 4px; font-synthesis: none; letter-spacing: 0.16px; text-align: left; text-wrap-mode: wrap;&quot;&gt;owner_id&lt;/code&gt;&lt;span style=&quot;color: oklch(0.9296 0.007 106.53); letter-spacing: 0.16px; text-align: left; text-wrap-mode: wrap;&quot;&gt;&lt;font style=&quot;font-size: 9px;&quot;&gt;→&lt;/font&gt;&lt;/span&gt;&lt;/font&gt;&lt;div&gt;&lt;font style=&quot;font-size: 8px;&quot; face=&quot;Helvetica&quot;&gt;&lt;code style=&quot;box-sizing: border-box; border-width: 0px; border-style: solid; border-color: oklch(0.9296 0.007 106.53 / 0.1); scrollbar-color: initial; scrollbar-width: initial; --tw-border-spacing-x: 0; --tw-border-spacing-y: 0; --tw-translate-x: 0; --tw-translate-y: 0; --tw-rotate: 0; --tw-skew-x: 0; --tw-skew-y: 0; --tw-scale-x: 1; --tw-scale-y: 1; --tw-pan-x: ; --tw-pan-y: ; --tw-pinch-zoom: ; --tw-scroll-snap-strictness: proximity; --tw-gradient-from-position: ; --tw-gradient-via-position: ; --tw-gradient-to-position: ; --tw-ordinal: ; --tw-slashed-zero: ; --tw-numeric-figure: ; --tw-numeric-spacing: ; --tw-numeric-fraction: ; --tw-ring-inset: ; --tw-ring-offset-width: 0px; --tw-ring-offset-color: #fff; --tw-ring-color: rgb(59 130 246 / .5); --tw-ring-offset-shadow: 0 0 #0000; --tw-ring-shadow: 0 0 #0000; --tw-shadow: 0 0 #0000; --tw-shadow-colored: 0 0 #0000; --tw-blur: ; --tw-brightness: ; --tw-contrast: ; --tw-grayscale: ; --tw-hue-rotate: ; --tw-invert: ; --tw-saturate: ; --tw-sepia: ; --tw-drop-shadow: ; --tw-backdrop-blur: ; --tw-backdrop-brightness: ; --tw-backdrop-contrast: ; --tw-backdrop-grayscale: ; --tw-backdrop-hue-rotate: ; --tw-backdrop-invert: ; --tw-backdrop-opacity: ; --tw-backdrop-saturate: ; --tw-backdrop-sepia: ; --tw-contain-size: ; --tw-contain-layout: ; --tw-contain-paint: ; --tw-contain-style: ; font-feature-settings: normal; font-variation-settings: normal; color: oklch(0.9296 0.007 106.53); border-radius: 0.3125rem; padding: 0px 4px; font-synthesis: none; letter-spacing: 0.16px; text-align: left; text-wrap-mode: wrap;&quot;&gt;user_id&lt;/code&gt;&lt;/font&gt;&lt;/div&gt;" style="text;html=1;align=center;verticalAlign=middle;resizable=0;points=[];autosize=1;strokeColor=none;fillColor=none;" vertex="1" parent="1">
          <mxGeometry x="230" y="155" width="80" height="40" as="geometry" />
        </mxCell>
        <mxCell id="qHGGSbSUSN5bT9a8Fdgy-86" value="&lt;font style=&quot;font-size: 9px;&quot; face=&quot;Helvetica&quot;&gt;&lt;code style=&quot;box-sizing: border-box; border-width: 0px; border-style: solid; border-color: oklch(0.9296 0.007 106.53 / 0.1); scrollbar-color: initial; scrollbar-width: initial; --tw-border-spacing-x: 0; --tw-border-spacing-y: 0; --tw-translate-x: 0; --tw-translate-y: 0; --tw-rotate: 0; --tw-skew-x: 0; --tw-skew-y: 0; --tw-scale-x: 1; --tw-scale-y: 1; --tw-pan-x: ; --tw-pan-y: ; --tw-pinch-zoom: ; --tw-scroll-snap-strictness: proximity; --tw-gradient-from-position: ; --tw-gradient-via-position: ; --tw-gradient-to-position: ; --tw-ordinal: ; --tw-slashed-zero: ; --tw-numeric-figure: ; --tw-numeric-spacing: ; --tw-numeric-fraction: ; --tw-ring-inset: ; --tw-ring-offset-width: 0px; --tw-ring-offset-color: #fff; --tw-ring-color: rgb(59 130 246 / .5); --tw-ring-offset-shadow: 0 0 #0000; --tw-ring-shadow: 0 0 #0000; --tw-shadow: 0 0 #0000; --tw-shadow-colored: 0 0 #0000; --tw-blur: ; --tw-brightness: ; --tw-contrast: ; --tw-grayscale: ; --tw-hue-rotate: ; --tw-invert: ; --tw-saturate: ; --tw-sepia: ; --tw-drop-shadow: ; --tw-backdrop-blur: ; --tw-backdrop-brightness: ; --tw-backdrop-contrast: ; --tw-backdrop-grayscale: ; --tw-backdrop-hue-rotate: ; --tw-backdrop-invert: ; --tw-backdrop-opacity: ; --tw-backdrop-saturate: ; --tw-backdrop-sepia: ; --tw-contain-size: ; --tw-contain-layout: ; --tw-contain-paint: ; --tw-contain-style: ; font-feature-settings: normal; font-variation-settings: normal; color: oklch(0.9296 0.007 106.53); background-color: oklch(0.2167 0.002 197.04); border-radius: 0.3125rem; padding: 0px 4px; font-synthesis: none; letter-spacing: 0.16px; text-align: left; text-wrap-mode: wrap;&quot;&gt;user_id(FK)&lt;/code&gt;&lt;span style=&quot;color: oklch(0.9296 0.007 106.53); letter-spacing: 0.16px; text-align: left; text-wrap-mode: wrap; background-color: oklch(0.2167 0.002 197.04);&quot;&gt;&amp;nbsp;→&amp;nbsp;&lt;/span&gt;&lt;code style=&quot;box-sizing: border-box; border-width: 0px; border-style: solid; border-color: oklch(0.9296 0.007 106.53 / 0.1); scrollbar-color: initial; scrollbar-width: initial; --tw-border-spacing-x: 0; --tw-border-spacing-y: 0; --tw-translate-x: 0; --tw-translate-y: 0; --tw-rotate: 0; --tw-skew-x: 0; --tw-skew-y: 0; --tw-scale-x: 1; --tw-scale-y: 1; --tw-pan-x: ; --tw-pan-y: ; --tw-pinch-zoom: ; --tw-scroll-snap-strictness: proximity; --tw-gradient-from-position: ; --tw-gradient-via-position: ; --tw-gradient-to-position: ; --tw-ordinal: ; --tw-slashed-zero: ; --tw-numeric-figure: ; --tw-numeric-spacing: ; --tw-numeric-fraction: ; --tw-ring-inset: ; --tw-ring-offset-width: 0px; --tw-ring-offset-color: #fff; --tw-ring-color: rgb(59 130 246 / .5); --tw-ring-offset-shadow: 0 0 #0000; --tw-ring-shadow: 0 0 #0000; --tw-shadow: 0 0 #0000; --tw-shadow-colored: 0 0 #0000; --tw-blur: ; --tw-brightness: ; --tw-contrast: ; --tw-grayscale: ; --tw-hue-rotate: ; --tw-invert: ; --tw-saturate: ; --tw-sepia: ; --tw-drop-shadow: ; --tw-backdrop-blur: ; --tw-backdrop-brightness: ; --tw-backdrop-contrast: ; --tw-backdrop-grayscale: ; --tw-backdrop-hue-rotate: ; --tw-backdrop-invert: ; --tw-backdrop-opacity: ; --tw-backdrop-saturate: ; --tw-backdrop-sepia: ; --tw-contain-size: ; --tw-contain-layout: ; --tw-contain-paint: ; --tw-contain-style: ; font-feature-settings: normal; font-variation-settings: normal; color: oklch(0.9296 0.007 106.53); background-color: oklch(0.2167 0.002 197.04); border-radius: 0.3125rem; padding: 0px 4px; font-synthesis: none; letter-spacing: 0.16px; text-align: left; text-wrap-mode: wrap;&quot;&gt;user_id(PK)&lt;/code&gt;&lt;/font&gt;" style="text;html=1;align=center;verticalAlign=middle;resizable=0;points=[];autosize=1;strokeColor=none;fillColor=none;" vertex="1" parent="1">
          <mxGeometry x="280" y="50" width="170" height="30" as="geometry" />
        </mxCell>
        <mxCell id="qHGGSbSUSN5bT9a8Fdgy-87" value="&lt;font style=&quot;font-size: 8px;&quot; face=&quot;Helvetica&quot;&gt;&lt;code style=&quot;box-sizing: border-box; border-width: 0px; border-style: solid; border-color: oklch(0.9296 0.007 106.53 / 0.1); scrollbar-color: initial; scrollbar-width: initial; --tw-border-spacing-x: 0; --tw-border-spacing-y: 0; --tw-translate-x: 0; --tw-translate-y: 0; --tw-rotate: 0; --tw-skew-x: 0; --tw-skew-y: 0; --tw-scale-x: 1; --tw-scale-y: 1; --tw-pan-x: ; --tw-pan-y: ; --tw-pinch-zoom: ; --tw-scroll-snap-strictness: proximity; --tw-gradient-from-position: ; --tw-gradient-via-position: ; --tw-gradient-to-position: ; --tw-ordinal: ; --tw-slashed-zero: ; --tw-numeric-figure: ; --tw-numeric-spacing: ; --tw-numeric-fraction: ; --tw-ring-inset: ; --tw-ring-offset-width: 0px; --tw-ring-offset-color: #fff; --tw-ring-color: rgb(59 130 246 / .5); --tw-ring-offset-shadow: 0 0 #0000; --tw-ring-shadow: 0 0 #0000; --tw-shadow: 0 0 #0000; --tw-shadow-colored: 0 0 #0000; --tw-blur: ; --tw-brightness: ; --tw-contrast: ; --tw-grayscale: ; --tw-hue-rotate: ; --tw-invert: ; --tw-saturate: ; --tw-sepia: ; --tw-drop-shadow: ; --tw-backdrop-blur: ; --tw-backdrop-brightness: ; --tw-backdrop-contrast: ; --tw-backdrop-grayscale: ; --tw-backdrop-hue-rotate: ; --tw-backdrop-invert: ; --tw-backdrop-opacity: ; --tw-backdrop-saturate: ; --tw-backdrop-sepia: ; --tw-contain-size: ; --tw-contain-layout: ; --tw-contain-paint: ; --tw-contain-style: ; font-feature-settings: normal; font-variation-settings: normal; color: oklch(0.9296 0.007 106.53); font-weight: 550; background-color: oklch(0.2167 0.002 197.04); border-radius: 0.3125rem; padding: 0px 4px; font-synthesis: none; font-style: normal; font-variant-ligatures: normal; font-variant-caps: normal; letter-spacing: 0.16px; orphans: 2; text-align: left; text-indent: 0px; text-transform: none; widows: 2; word-spacing: 0px; -webkit-text-stroke-width: 0px; white-space: normal; text-decoration-thickness: initial; text-decoration-style: initial; text-decoration-color: initial;&quot;&gt;property_id (FK)&lt;/code&gt;&lt;span style=&quot;color: oklch(0.9296 0.007 106.53); font-style: normal; font-variant-ligatures: normal; font-variant-caps: normal; font-weight: 375; letter-spacing: 0.16px; orphans: 2; text-align: left; text-indent: 0px; text-transform: none; widows: 2; word-spacing: 0px; -webkit-text-stroke-width: 0px; white-space: normal; background-color: oklch(0.2167 0.002 197.04); text-decoration-thickness: initial; text-decoration-style: initial; text-decoration-color: initial; float: none; display: inline !important;&quot;&gt;&lt;span&gt;&amp;nbsp;&lt;/span&gt;→&lt;span&gt;&amp;nbsp;&lt;/span&gt;&lt;/span&gt;&lt;/font&gt;&lt;div&gt;&lt;font style=&quot;font-size: 8px;&quot; face=&quot;Helvetica&quot;&gt;&lt;code style=&quot;box-sizing: border-box; border-width: 0px; border-style: solid; border-color: oklch(0.9296 0.007 106.53 / 0.1); scrollbar-color: initial; scrollbar-width: initial; --tw-border-spacing-x: 0; --tw-border-spacing-y: 0; --tw-translate-x: 0; --tw-translate-y: 0; --tw-rotate: 0; --tw-skew-x: 0; --tw-skew-y: 0; --tw-scale-x: 1; --tw-scale-y: 1; --tw-pan-x: ; --tw-pan-y: ; --tw-pinch-zoom: ; --tw-scroll-snap-strictness: proximity; --tw-gradient-from-position: ; --tw-gradient-via-position: ; --tw-gradient-to-position: ; --tw-ordinal: ; --tw-slashed-zero: ; --tw-numeric-figure: ; --tw-numeric-spacing: ; --tw-numeric-fraction: ; --tw-ring-inset: ; --tw-ring-offset-width: 0px; --tw-ring-offset-color: #fff; --tw-ring-color: rgb(59 130 246 / .5); --tw-ring-offset-shadow: 0 0 #0000; --tw-ring-shadow: 0 0 #0000; --tw-shadow: 0 0 #0000; --tw-shadow-colored: 0 0 #0000; --tw-blur: ; --tw-brightness: ; --tw-contrast: ; --tw-grayscale: ; --tw-hue-rotate: ; --tw-invert: ; --tw-saturate: ; --tw-sepia: ; --tw-drop-shadow: ; --tw-backdrop-blur: ; --tw-backdrop-brightness: ; --tw-backdrop-contrast: ; --tw-backdrop-grayscale: ; --tw-backdrop-hue-rotate: ; --tw-backdrop-invert: ; --tw-backdrop-opacity: ; --tw-backdrop-saturate: ; --tw-backdrop-sepia: ; --tw-contain-size: ; --tw-contain-layout: ; --tw-contain-paint: ; --tw-contain-style: ; font-feature-settings: normal; font-variation-settings: normal; color: oklch(0.9296 0.007 106.53); font-weight: 550; background-color: oklch(0.2167 0.002 197.04); border-radius: 0.3125rem; padding: 0px 4px; font-synthesis: none; font-style: normal; font-variant-ligatures: normal; font-variant-caps: normal; letter-spacing: 0.16px; orphans: 2; text-align: left; text-indent: 0px; text-transform: none; widows: 2; word-spacing: 0px; -webkit-text-stroke-width: 0px; white-space: normal; text-decoration-thickness: initial; text-decoration-style: initial; text-decoration-color: initial;&quot;&gt;property_id (PK)&lt;/code&gt;&lt;/font&gt;&lt;/div&gt;" style="text;whiteSpace=wrap;html=1;" vertex="1" parent="1">
          <mxGeometry x="460" y="180" width="70.23" height="40" as="geometry" />
        </mxCell>
        <mxCell id="qHGGSbSUSN5bT9a8Fdgy-88" value="&lt;font style=&quot;font-size: 8px;&quot; face=&quot;Helvetica&quot;&gt;&lt;code style=&quot;box-sizing: border-box; border-width: 0px; border-style: solid; border-color: oklch(0.9296 0.007 106.53 / 0.1); scrollbar-color: initial; scrollbar-width: initial; --tw-border-spacing-x: 0; --tw-border-spacing-y: 0; --tw-translate-x: 0; --tw-translate-y: 0; --tw-rotate: 0; --tw-skew-x: 0; --tw-skew-y: 0; --tw-scale-x: 1; --tw-scale-y: 1; --tw-pan-x: ; --tw-pan-y: ; --tw-pinch-zoom: ; --tw-scroll-snap-strictness: proximity; --tw-gradient-from-position: ; --tw-gradient-via-position: ; --tw-gradient-to-position: ; --tw-ordinal: ; --tw-slashed-zero: ; --tw-numeric-figure: ; --tw-numeric-spacing: ; --tw-numeric-fraction: ; --tw-ring-inset: ; --tw-ring-offset-width: 0px; --tw-ring-offset-color: #fff; --tw-ring-color: rgb(59 130 246 / .5); --tw-ring-offset-shadow: 0 0 #0000; --tw-ring-shadow: 0 0 #0000; --tw-shadow: 0 0 #0000; --tw-shadow-colored: 0 0 #0000; --tw-blur: ; --tw-brightness: ; --tw-contrast: ; --tw-grayscale: ; --tw-hue-rotate: ; --tw-invert: ; --tw-saturate: ; --tw-sepia: ; --tw-drop-shadow: ; --tw-backdrop-blur: ; --tw-backdrop-brightness: ; --tw-backdrop-contrast: ; --tw-backdrop-grayscale: ; --tw-backdrop-hue-rotate: ; --tw-backdrop-invert: ; --tw-backdrop-opacity: ; --tw-backdrop-saturate: ; --tw-backdrop-sepia: ; --tw-contain-size: ; --tw-contain-layout: ; --tw-contain-paint: ; --tw-contain-style: ; font-feature-settings: normal; font-variation-settings: normal; color: oklch(0.9296 0.007 106.53); font-weight: 550; background-color: oklch(0.2167 0.002 197.04); border-radius: 0.3125rem; padding: 0px 4px; font-synthesis: none; font-style: normal; font-variant-ligatures: normal; font-variant-caps: normal; letter-spacing: 0.16px; orphans: 2; text-align: left; text-indent: 0px; text-transform: none; widows: 2; word-spacing: 0px; -webkit-text-stroke-width: 0px; white-space: normal; text-decoration-thickness: initial; text-decoration-style: initial; text-decoration-color: initial;&quot;&gt;booking_id (FK)&lt;/code&gt;&lt;span style=&quot;color: oklch(0.9296 0.007 106.53); font-style: normal; font-variant-ligatures: normal; font-variant-caps: normal; font-weight: 375; letter-spacing: 0.16px; orphans: 2; text-align: left; text-indent: 0px; text-transform: none; widows: 2; word-spacing: 0px; -webkit-text-stroke-width: 0px; white-space: normal; background-color: oklch(0.2167 0.002 197.04); text-decoration-thickness: initial; text-decoration-style: initial; text-decoration-color: initial; float: none; display: inline !important;&quot;&gt;&lt;span&gt;&amp;nbsp;&lt;/span&gt;→&lt;span&gt;&amp;nbsp;&lt;/span&gt;&lt;/span&gt;&lt;/font&gt;&lt;div&gt;&lt;font style=&quot;font-size: 8px;&quot; face=&quot;Helvetica&quot;&gt;&lt;code style=&quot;box-sizing: border-box; border-width: 0px; border-style: solid; border-color: oklch(0.9296 0.007 106.53 / 0.1); scrollbar-color: initial; scrollbar-width: initial; --tw-border-spacing-x: 0; --tw-border-spacing-y: 0; --tw-translate-x: 0; --tw-translate-y: 0; --tw-rotate: 0; --tw-skew-x: 0; --tw-skew-y: 0; --tw-scale-x: 1; --tw-scale-y: 1; --tw-pan-x: ; --tw-pan-y: ; --tw-pinch-zoom: ; --tw-scroll-snap-strictness: proximity; --tw-gradient-from-position: ; --tw-gradient-via-position: ; --tw-gradient-to-position: ; --tw-ordinal: ; --tw-slashed-zero: ; --tw-numeric-figure: ; --tw-numeric-spacing: ; --tw-numeric-fraction: ; --tw-ring-inset: ; --tw-ring-offset-width: 0px; --tw-ring-offset-color: #fff; --tw-ring-color: rgb(59 130 246 / .5); --tw-ring-offset-shadow: 0 0 #0000; --tw-ring-shadow: 0 0 #0000; --tw-shadow: 0 0 #0000; --tw-shadow-colored: 0 0 #0000; --tw-blur: ; --tw-brightness: ; --tw-contrast: ; --tw-grayscale: ; --tw-hue-rotate: ; --tw-invert: ; --tw-saturate: ; --tw-sepia: ; --tw-drop-shadow: ; --tw-backdrop-blur: ; --tw-backdrop-brightness: ; --tw-backdrop-contrast: ; --tw-backdrop-grayscale: ; --tw-backdrop-hue-rotate: ; --tw-backdrop-invert: ; --tw-backdrop-opacity: ; --tw-backdrop-saturate: ; --tw-backdrop-sepia: ; --tw-contain-size: ; --tw-contain-layout: ; --tw-contain-paint: ; --tw-contain-style: ; font-feature-settings: normal; font-variation-settings: normal; color: oklch(0.9296 0.007 106.53); font-weight: 550; background-color: oklch(0.2167 0.002 197.04); border-radius: 0.3125rem; padding: 0px 4px; font-synthesis: none; font-style: normal; font-variant-ligatures: normal; font-variant-caps: normal; letter-spacing: 0.16px; orphans: 2; text-align: left; text-indent: 0px; text-transform: none; widows: 2; word-spacing: 0px; -webkit-text-stroke-width: 0px; white-space: normal; text-decoration-thickness: initial; text-decoration-style: initial; text-decoration-color: initial;&quot;&gt;booking_id (PK)&lt;/code&gt;&lt;/font&gt;&lt;/div&gt;" style="text;whiteSpace=wrap;html=1;" vertex="1" parent="1">
          <mxGeometry x="710" y="240" width="69.77" height="40" as="geometry" />
        </mxCell>
        <mxCell id="qHGGSbSUSN5bT9a8Fdgy-89" value="&lt;font style=&quot;font-size: 9px;&quot;&gt;&lt;code style=&quot;box-sizing: border-box; border-width: 0px; border-style: solid; border-color: oklch(0.9296 0.007 106.53 / 0.1); scrollbar-color: initial; scrollbar-width: initial; --tw-border-spacing-x: 0; --tw-border-spacing-y: 0; --tw-translate-x: 0; --tw-translate-y: 0; --tw-rotate: 0; --tw-skew-x: 0; --tw-skew-y: 0; --tw-scale-x: 1; --tw-scale-y: 1; --tw-pan-x: ; --tw-pan-y: ; --tw-pinch-zoom: ; --tw-scroll-snap-strictness: proximity; --tw-gradient-from-position: ; --tw-gradient-via-position: ; --tw-gradient-to-position: ; --tw-ordinal: ; --tw-slashed-zero: ; --tw-numeric-figure: ; --tw-numeric-spacing: ; --tw-numeric-fraction: ; --tw-ring-inset: ; --tw-ring-offset-width: 0px; --tw-ring-offset-color: #fff; --tw-ring-color: rgb(59 130 246 / .5); --tw-ring-offset-shadow: 0 0 #0000; --tw-ring-shadow: 0 0 #0000; --tw-shadow: 0 0 #0000; --tw-shadow-colored: 0 0 #0000; --tw-blur: ; --tw-brightness: ; --tw-contrast: ; --tw-grayscale: ; --tw-hue-rotate: ; --tw-invert: ; --tw-saturate: ; --tw-sepia: ; --tw-drop-shadow: ; --tw-backdrop-blur: ; --tw-backdrop-brightness: ; --tw-backdrop-contrast: ; --tw-backdrop-grayscale: ; --tw-backdrop-hue-rotate: ; --tw-backdrop-invert: ; --tw-backdrop-opacity: ; --tw-backdrop-saturate: ; --tw-backdrop-sepia: ; --tw-contain-size: ; --tw-contain-layout: ; --tw-contain-paint: ; --tw-contain-style: ; font-feature-settings: normal; font-variation-settings: normal; color: oklch(0.9296 0.007 106.53); font-weight: 550; background-color: oklch(0.2167 0.002 197.04); border-radius: 0.3125rem; padding: 0px 4px; font-synthesis: none; font-style: normal; font-variant-ligatures: normal; font-variant-caps: normal; letter-spacing: 0.16px; orphans: 2; text-align: left; text-indent: 0px; text-transform: none; widows: 2; word-spacing: 0px; -webkit-text-stroke-width: 0px; white-space: normal; text-decoration-thickness: initial; text-decoration-style: initial; text-decoration-color: initial;&quot;&gt;user_id (FK)&lt;/code&gt;&lt;span style=&quot;color: oklch(0.9296 0.007 106.53); font-style: normal; font-variant-ligatures: normal; font-variant-caps: normal; font-weight: 375; letter-spacing: 0.16px; orphans: 2; text-align: left; text-indent: 0px; text-transform: none; widows: 2; word-spacing: 0px; -webkit-text-stroke-width: 0px; white-space: normal; background-color: oklch(0.2167 0.002 197.04); text-decoration-thickness: initial; text-decoration-style: initial; text-decoration-color: initial; float: none; display: inline !important;&quot;&gt;&lt;span&gt;&amp;nbsp;&lt;/span&gt;→&lt;span&gt;&amp;nbsp;&lt;/span&gt;&lt;/span&gt;&lt;/font&gt;&lt;div&gt;&lt;font style=&quot;font-size: 9px;&quot;&gt;&lt;code style=&quot;box-sizing: border-box; border-width: 0px; border-style: solid; border-color: oklch(0.9296 0.007 106.53 / 0.1); scrollbar-color: initial; scrollbar-width: initial; --tw-border-spacing-x: 0; --tw-border-spacing-y: 0; --tw-translate-x: 0; --tw-translate-y: 0; --tw-rotate: 0; --tw-skew-x: 0; --tw-skew-y: 0; --tw-scale-x: 1; --tw-scale-y: 1; --tw-pan-x: ; --tw-pan-y: ; --tw-pinch-zoom: ; --tw-scroll-snap-strictness: proximity; --tw-gradient-from-position: ; --tw-gradient-via-position: ; --tw-gradient-to-position: ; --tw-ordinal: ; --tw-slashed-zero: ; --tw-numeric-figure: ; --tw-numeric-spacing: ; --tw-numeric-fraction: ; --tw-ring-inset: ; --tw-ring-offset-width: 0px; --tw-ring-offset-color: #fff; --tw-ring-color: rgb(59 130 246 / .5); --tw-ring-offset-shadow: 0 0 #0000; --tw-ring-shadow: 0 0 #0000; --tw-shadow: 0 0 #0000; --tw-shadow-colored: 0 0 #0000; --tw-blur: ; --tw-brightness: ; --tw-contrast: ; --tw-grayscale: ; --tw-hue-rotate: ; --tw-invert: ; --tw-saturate: ; --tw-sepia: ; --tw-drop-shadow: ; --tw-backdrop-blur: ; --tw-backdrop-brightness: ; --tw-backdrop-contrast: ; --tw-backdrop-grayscale: ; --tw-backdrop-hue-rotate: ; --tw-backdrop-invert: ; --tw-backdrop-opacity: ; --tw-backdrop-saturate: ; --tw-backdrop-sepia: ; --tw-contain-size: ; --tw-contain-layout: ; --tw-contain-paint: ; --tw-contain-style: ; font-feature-settings: normal; font-variation-settings: normal; color: oklch(0.9296 0.007 106.53); font-weight: 550; background-color: oklch(0.2167 0.002 197.04); border-radius: 0.3125rem; padding: 0px 4px; font-synthesis: none; font-style: normal; font-variant-ligatures: normal; font-variant-caps: normal; letter-spacing: 0.16px; orphans: 2; text-align: left; text-indent: 0px; text-transform: none; widows: 2; word-spacing: 0px; -webkit-text-stroke-width: 0px; white-space: normal; text-decoration-thickness: initial; text-decoration-style: initial; text-decoration-color: initial;&quot;&gt;user_id (PK)&lt;/code&gt;&lt;/font&gt;&lt;/div&gt;" style="text;whiteSpace=wrap;html=1;rotation=-90;" vertex="1" parent="1">
          <mxGeometry x="190.48" y="380" width="89.99" height="40" as="geometry" />
        </mxCell>
        <mxCell id="qHGGSbSUSN5bT9a8Fdgy-90" value="&lt;font style=&quot;font-size: 8px;&quot; face=&quot;Helvetica&quot;&gt;&lt;code style=&quot;box-sizing: border-box; border-width: 0px; border-style: solid; border-color: oklch(0.9296 0.007 106.53 / 0.1); scrollbar-color: initial; scrollbar-width: initial; --tw-border-spacing-x: 0; --tw-border-spacing-y: 0; --tw-translate-x: 0; --tw-translate-y: 0; --tw-rotate: 0; --tw-skew-x: 0; --tw-skew-y: 0; --tw-scale-x: 1; --tw-scale-y: 1; --tw-pan-x: ; --tw-pan-y: ; --tw-pinch-zoom: ; --tw-scroll-snap-strictness: proximity; --tw-gradient-from-position: ; --tw-gradient-via-position: ; --tw-gradient-to-position: ; --tw-ordinal: ; --tw-slashed-zero: ; --tw-numeric-figure: ; --tw-numeric-spacing: ; --tw-numeric-fraction: ; --tw-ring-inset: ; --tw-ring-offset-width: 0px; --tw-ring-offset-color: #fff; --tw-ring-color: rgb(59 130 246 / .5); --tw-ring-offset-shadow: 0 0 #0000; --tw-ring-shadow: 0 0 #0000; --tw-shadow: 0 0 #0000; --tw-shadow-colored: 0 0 #0000; --tw-blur: ; --tw-brightness: ; --tw-contrast: ; --tw-grayscale: ; --tw-hue-rotate: ; --tw-invert: ; --tw-saturate: ; --tw-sepia: ; --tw-drop-shadow: ; --tw-backdrop-blur: ; --tw-backdrop-brightness: ; --tw-backdrop-contrast: ; --tw-backdrop-grayscale: ; --tw-backdrop-hue-rotate: ; --tw-backdrop-invert: ; --tw-backdrop-opacity: ; --tw-backdrop-saturate: ; --tw-backdrop-sepia: ; --tw-contain-size: ; --tw-contain-layout: ; --tw-contain-paint: ; --tw-contain-style: ; font-feature-settings: normal; font-variation-settings: normal; color: oklch(0.9296 0.007 106.53); font-weight: 550; background-color: oklch(0.2167 0.002 197.04); border-radius: 0.3125rem; padding: 0px 4px; font-synthesis: none; font-style: normal; font-variant-ligatures: normal; font-variant-caps: normal; letter-spacing: 0.16px; orphans: 2; text-align: left; text-indent: 0px; text-transform: none; widows: 2; word-spacing: 0px; -webkit-text-stroke-width: 0px; white-space: normal; text-decoration-thickness: initial; text-decoration-style: initial; text-decoration-color: initial;&quot;&gt;property_id (FK)&lt;/code&gt;&lt;span style=&quot;color: oklch(0.9296 0.007 106.53); font-style: normal; font-variant-ligatures: normal; font-variant-caps: normal; font-weight: 375; letter-spacing: 0.16px; orphans: 2; text-align: left; text-indent: 0px; text-transform: none; widows: 2; word-spacing: 0px; -webkit-text-stroke-width: 0px; white-space: normal; background-color: oklch(0.2167 0.002 197.04); text-decoration-thickness: initial; text-decoration-style: initial; text-decoration-color: initial; float: none; display: inline !important;&quot;&gt;&lt;span&gt;&amp;nbsp;&lt;/span&gt;→&lt;span&gt;&amp;nbsp;&lt;/span&gt;&lt;/span&gt;&lt;/font&gt;&lt;div&gt;&lt;font style=&quot;font-size: 8px;&quot; face=&quot;Helvetica&quot;&gt;&lt;code style=&quot;box-sizing: border-box; border-width: 0px; border-style: solid; border-color: oklch(0.9296 0.007 106.53 / 0.1); scrollbar-color: initial; scrollbar-width: initial; --tw-border-spacing-x: 0; --tw-border-spacing-y: 0; --tw-translate-x: 0; --tw-translate-y: 0; --tw-rotate: 0; --tw-skew-x: 0; --tw-skew-y: 0; --tw-scale-x: 1; --tw-scale-y: 1; --tw-pan-x: ; --tw-pan-y: ; --tw-pinch-zoom: ; --tw-scroll-snap-strictness: proximity; --tw-gradient-from-position: ; --tw-gradient-via-position: ; --tw-gradient-to-position: ; --tw-ordinal: ; --tw-slashed-zero: ; --tw-numeric-figure: ; --tw-numeric-spacing: ; --tw-numeric-fraction: ; --tw-ring-inset: ; --tw-ring-offset-width: 0px; --tw-ring-offset-color: #fff; --tw-ring-color: rgb(59 130 246 / .5); --tw-ring-offset-shadow: 0 0 #0000; --tw-ring-shadow: 0 0 #0000; --tw-shadow: 0 0 #0000; --tw-shadow-colored: 0 0 #0000; --tw-blur: ; --tw-brightness: ; --tw-contrast: ; --tw-grayscale: ; --tw-hue-rotate: ; --tw-invert: ; --tw-saturate: ; --tw-sepia: ; --tw-drop-shadow: ; --tw-backdrop-blur: ; --tw-backdrop-brightness: ; --tw-backdrop-contrast: ; --tw-backdrop-grayscale: ; --tw-backdrop-hue-rotate: ; --tw-backdrop-invert: ; --tw-backdrop-opacity: ; --tw-backdrop-saturate: ; --tw-backdrop-sepia: ; --tw-contain-size: ; --tw-contain-layout: ; --tw-contain-paint: ; --tw-contain-style: ; font-feature-settings: normal; font-variation-settings: normal; color: oklch(0.9296 0.007 106.53); font-weight: 550; background-color: oklch(0.2167 0.002 197.04); border-radius: 0.3125rem; padding: 0px 4px; font-synthesis: none; font-style: normal; font-variant-ligatures: normal; font-variant-caps: normal; letter-spacing: 0.16px; orphans: 2; text-align: left; text-indent: 0px; text-transform: none; widows: 2; word-spacing: 0px; -webkit-text-stroke-width: 0px; white-space: normal; text-decoration-thickness: initial; text-decoration-style: initial; text-decoration-color: initial;&quot;&gt;property_id (PK)&lt;/code&gt;&lt;/font&gt;&lt;/div&gt;" style="text;whiteSpace=wrap;html=1;rotation=-90;" vertex="1" parent="1">
          <mxGeometry x="240.23" y="385" width="100" height="40" as="geometry" />
        </mxCell>
        <mxCell id="qHGGSbSUSN5bT9a8Fdgy-91" value="&lt;font style=&quot;font-size: 8px;&quot; face=&quot;Helvetica&quot;&gt;&lt;code style=&quot;box-sizing: border-box; border-width: 0px; border-style: solid; border-color: oklch(0.9296 0.007 106.53 / 0.1); scrollbar-color: initial; scrollbar-width: initial; --tw-border-spacing-x: 0; --tw-border-spacing-y: 0; --tw-translate-x: 0; --tw-translate-y: 0; --tw-rotate: 0; --tw-skew-x: 0; --tw-skew-y: 0; --tw-scale-x: 1; --tw-scale-y: 1; --tw-pan-x: ; --tw-pan-y: ; --tw-pinch-zoom: ; --tw-scroll-snap-strictness: proximity; --tw-gradient-from-position: ; --tw-gradient-via-position: ; --tw-gradient-to-position: ; --tw-ordinal: ; --tw-slashed-zero: ; --tw-numeric-figure: ; --tw-numeric-spacing: ; --tw-numeric-fraction: ; --tw-ring-inset: ; --tw-ring-offset-width: 0px; --tw-ring-offset-color: #fff; --tw-ring-color: rgb(59 130 246 / .5); --tw-ring-offset-shadow: 0 0 #0000; --tw-ring-shadow: 0 0 #0000; --tw-shadow: 0 0 #0000; --tw-shadow-colored: 0 0 #0000; --tw-blur: ; --tw-brightness: ; --tw-contrast: ; --tw-grayscale: ; --tw-hue-rotate: ; --tw-invert: ; --tw-saturate: ; --tw-sepia: ; --tw-drop-shadow: ; --tw-backdrop-blur: ; --tw-backdrop-brightness: ; --tw-backdrop-contrast: ; --tw-backdrop-grayscale: ; --tw-backdrop-hue-rotate: ; --tw-backdrop-invert: ; --tw-backdrop-opacity: ; --tw-backdrop-saturate: ; --tw-backdrop-sepia: ; --tw-contain-size: ; --tw-contain-layout: ; --tw-contain-paint: ; --tw-contain-style: ; font-feature-settings: normal; font-variation-settings: normal; color: oklch(0.9296 0.007 106.53); font-weight: 550; background-color: oklch(0.2167 0.002 197.04); border-radius: 0.3125rem; padding: 0px 4px; font-synthesis: none; font-style: normal; font-variant-ligatures: normal; font-variant-caps: normal; letter-spacing: 0.16px; orphans: 2; text-align: left; text-indent: 0px; text-transform: none; widows: 2; word-spacing: 0px; -webkit-text-stroke-width: 0px; white-space: normal; text-decoration-thickness: initial; text-decoration-style: initial; text-decoration-color: initial;&quot;&gt;user_id (FK)&lt;/code&gt;&lt;span style=&quot;color: oklch(0.9296 0.007 106.53); font-style: normal; font-variant-ligatures: normal; font-variant-caps: normal; font-weight: 375; letter-spacing: 0.16px; orphans: 2; text-align: left; text-indent: 0px; text-transform: none; widows: 2; word-spacing: 0px; -webkit-text-stroke-width: 0px; white-space: normal; background-color: oklch(0.2167 0.002 197.04); text-decoration-thickness: initial; text-decoration-style: initial; text-decoration-color: initial; float: none; display: inline !important;&quot;&gt;&lt;span&gt;&amp;nbsp;&lt;/span&gt;→&lt;span&gt;&amp;nbsp;&lt;/span&gt;&lt;/span&gt;&lt;/font&gt;&lt;div&gt;&lt;font style=&quot;font-size: 8px;&quot; face=&quot;Helvetica&quot;&gt;&lt;code style=&quot;box-sizing: border-box; border-width: 0px; border-style: solid; border-color: oklch(0.9296 0.007 106.53 / 0.1); scrollbar-color: initial; scrollbar-width: initial; --tw-border-spacing-x: 0; --tw-border-spacing-y: 0; --tw-translate-x: 0; --tw-translate-y: 0; --tw-rotate: 0; --tw-skew-x: 0; --tw-skew-y: 0; --tw-scale-x: 1; --tw-scale-y: 1; --tw-pan-x: ; --tw-pan-y: ; --tw-pinch-zoom: ; --tw-scroll-snap-strictness: proximity; --tw-gradient-from-position: ; --tw-gradient-via-position: ; --tw-gradient-to-position: ; --tw-ordinal: ; --tw-slashed-zero: ; --tw-numeric-figure: ; --tw-numeric-spacing: ; --tw-numeric-fraction: ; --tw-ring-inset: ; --tw-ring-offset-width: 0px; --tw-ring-offset-color: #fff; --tw-ring-color: rgb(59 130 246 / .5); --tw-ring-offset-shadow: 0 0 #0000; --tw-ring-shadow: 0 0 #0000; --tw-shadow: 0 0 #0000; --tw-shadow-colored: 0 0 #0000; --tw-blur: ; --tw-brightness: ; --tw-contrast: ; --tw-grayscale: ; --tw-hue-rotate: ; --tw-invert: ; --tw-saturate: ; --tw-sepia: ; --tw-drop-shadow: ; --tw-backdrop-blur: ; --tw-backdrop-brightness: ; --tw-backdrop-contrast: ; --tw-backdrop-grayscale: ; --tw-backdrop-hue-rotate: ; --tw-backdrop-invert: ; --tw-backdrop-opacity: ; --tw-backdrop-saturate: ; --tw-backdrop-sepia: ; --tw-contain-size: ; --tw-contain-layout: ; --tw-contain-paint: ; --tw-contain-style: ; font-feature-settings: normal; font-variation-settings: normal; color: oklch(0.9296 0.007 106.53); font-weight: 550; background-color: oklch(0.2167 0.002 197.04); border-radius: 0.3125rem; padding: 0px 4px; font-synthesis: none; font-style: normal; font-variant-ligatures: normal; font-variant-caps: normal; letter-spacing: 0.16px; orphans: 2; text-align: left; text-indent: 0px; text-transform: none; widows: 2; word-spacing: 0px; -webkit-text-stroke-width: 0px; white-space: normal; text-decoration-thickness: initial; text-decoration-style: initial; text-decoration-color: initial;&quot;&gt;user_id (PK)&lt;/code&gt;&lt;/font&gt;&lt;/div&gt;" style="text;whiteSpace=wrap;html=1;" vertex="1" parent="1">
          <mxGeometry x="280" y="280" width="90" height="40" as="geometry" />
        </mxCell>
        <mxCell id="qHGGSbSUSN5bT9a8Fdgy-93" value="&lt;font style=&quot;font-size: 8px;&quot; face=&quot;Helvetica&quot;&gt;&lt;code style=&quot;box-sizing: border-box; border-width: 0px; border-style: solid; border-color: oklch(0.9296 0.007 106.53 / 0.1); scrollbar-color: initial; scrollbar-width: initial; --tw-border-spacing-x: 0; --tw-border-spacing-y: 0; --tw-translate-x: 0; --tw-translate-y: 0; --tw-rotate: 0; --tw-skew-x: 0; --tw-skew-y: 0; --tw-scale-x: 1; --tw-scale-y: 1; --tw-pan-x: ; --tw-pan-y: ; --tw-pinch-zoom: ; --tw-scroll-snap-strictness: proximity; --tw-gradient-from-position: ; --tw-gradient-via-position: ; --tw-gradient-to-position: ; --tw-ordinal: ; --tw-slashed-zero: ; --tw-numeric-figure: ; --tw-numeric-spacing: ; --tw-numeric-fraction: ; --tw-ring-inset: ; --tw-ring-offset-width: 0px; --tw-ring-offset-color: #fff; --tw-ring-color: rgb(59 130 246 / .5); --tw-ring-offset-shadow: 0 0 #0000; --tw-ring-shadow: 0 0 #0000; --tw-shadow: 0 0 #0000; --tw-shadow-colored: 0 0 #0000; --tw-blur: ; --tw-brightness: ; --tw-contrast: ; --tw-grayscale: ; --tw-hue-rotate: ; --tw-invert: ; --tw-saturate: ; --tw-sepia: ; --tw-drop-shadow: ; --tw-backdrop-blur: ; --tw-backdrop-brightness: ; --tw-backdrop-contrast: ; --tw-backdrop-grayscale: ; --tw-backdrop-hue-rotate: ; --tw-backdrop-invert: ; --tw-backdrop-opacity: ; --tw-backdrop-saturate: ; --tw-backdrop-sepia: ; --tw-contain-size: ; --tw-contain-layout: ; --tw-contain-paint: ; --tw-contain-style: ; font-feature-settings: normal; font-variation-settings: normal; color: oklch(0.9296 0.007 106.53); font-weight: 550; background-color: oklch(0.2167 0.002 197.04); border-radius: 0.3125rem; padding: 0px 4px; font-synthesis: none; font-style: normal; font-variant-ligatures: normal; font-variant-caps: normal; letter-spacing: 0.16px; orphans: 2; text-align: left; text-indent: 0px; text-transform: none; widows: 2; word-spacing: 0px; -webkit-text-stroke-width: 0px; white-space: normal; text-decoration-thickness: initial; text-decoration-style: initial; text-decoration-color: initial;&quot;&gt;property_id (FK)&lt;/code&gt;&lt;span style=&quot;color: oklch(0.9296 0.007 106.53); font-style: normal; font-variant-ligatures: normal; font-variant-caps: normal; font-weight: 375; letter-spacing: 0.16px; orphans: 2; text-align: left; text-indent: 0px; text-transform: none; widows: 2; word-spacing: 0px; -webkit-text-stroke-width: 0px; white-space: normal; background-color: oklch(0.2167 0.002 197.04); text-decoration-thickness: initial; text-decoration-style: initial; text-decoration-color: initial; float: none; display: inline !important;&quot;&gt;&lt;span&gt;&amp;nbsp;&lt;/span&gt;→&lt;span&gt;&amp;nbsp;&lt;/span&gt;&lt;/span&gt;&lt;/font&gt;&lt;div&gt;&lt;font style=&quot;font-size: 8px;&quot; face=&quot;Helvetica&quot;&gt;&lt;code style=&quot;box-sizing: border-box; border-width: 0px; border-style: solid; border-color: oklch(0.9296 0.007 106.53 / 0.1); scrollbar-color: initial; scrollbar-width: initial; --tw-border-spacing-x: 0; --tw-border-spacing-y: 0; --tw-translate-x: 0; --tw-translate-y: 0; --tw-rotate: 0; --tw-skew-x: 0; --tw-skew-y: 0; --tw-scale-x: 1; --tw-scale-y: 1; --tw-pan-x: ; --tw-pan-y: ; --tw-pinch-zoom: ; --tw-scroll-snap-strictness: proximity; --tw-gradient-from-position: ; --tw-gradient-via-position: ; --tw-gradient-to-position: ; --tw-ordinal: ; --tw-slashed-zero: ; --tw-numeric-figure: ; --tw-numeric-spacing: ; --tw-numeric-fraction: ; --tw-ring-inset: ; --tw-ring-offset-width: 0px; --tw-ring-offset-color: #fff; --tw-ring-color: rgb(59 130 246 / .5); --tw-ring-offset-shadow: 0 0 #0000; --tw-ring-shadow: 0 0 #0000; --tw-shadow: 0 0 #0000; --tw-shadow-colored: 0 0 #0000; --tw-blur: ; --tw-brightness: ; --tw-contrast: ; --tw-grayscale: ; --tw-hue-rotate: ; --tw-invert: ; --tw-saturate: ; --tw-sepia: ; --tw-drop-shadow: ; --tw-backdrop-blur: ; --tw-backdrop-brightness: ; --tw-backdrop-contrast: ; --tw-backdrop-grayscale: ; --tw-backdrop-hue-rotate: ; --tw-backdrop-invert: ; --tw-backdrop-opacity: ; --tw-backdrop-saturate: ; --tw-backdrop-sepia: ; --tw-contain-size: ; --tw-contain-layout: ; --tw-contain-paint: ; --tw-contain-style: ; font-feature-settings: normal; font-variation-settings: normal; color: oklch(0.9296 0.007 106.53); font-weight: 550; background-color: oklch(0.2167 0.002 197.04); border-radius: 0.3125rem; padding: 0px 4px; font-synthesis: none; font-style: normal; font-variant-ligatures: normal; font-variant-caps: normal; letter-spacing: 0.16px; orphans: 2; text-align: left; text-indent: 0px; text-transform: none; widows: 2; word-spacing: 0px; -webkit-text-stroke-width: 0px; white-space: normal; text-decoration-thickness: initial; text-decoration-style: initial; text-decoration-color: initial;&quot;&gt;property_id (PK)&lt;/code&gt;&lt;/font&gt;&lt;/div&gt;" style="text;whiteSpace=wrap;html=1;" vertex="1" parent="1">
          <mxGeometry x="410.23" y="330" width="70.23" height="40" as="geometry" />
        </mxCell>
      </root>
    </mxGraphModel>
  </diagram>
</mxfile>
